<svg width="30" height="30" viewBox="0 0 30 30" fill="none" xmlns="http://www.w3.org/2000/svg">
<path d="M25 15.625V6.25C25 5.91146 24.8763 5.61849 24.6289 5.37109C24.3815 5.1237 24.0885 5 23.75 5H14.375C13.8281 5 13.444 5.25391 13.2227 5.76172C13.0013 6.29557 13.0924 6.7513 13.4961 7.12891L16.3086 9.94141L5.87891 20.3711C5.63151 20.6185 5.50781 20.9115 5.50781 21.25C5.50781 21.5885 5.63151 21.8815 5.87891 22.1289L7.87109 24.1211C8.11849 24.3685 8.41146 24.4922 8.75 24.4922C9.08854 24.4922 9.38151 24.3685 9.62891 24.1211L20.0586 13.6914L22.8711 16.5039C23.1055 16.7513 23.3984 16.875 23.75 16.875C23.9062 16.875 24.069 16.8424 24.2383 16.7773C24.7461 16.556 25 16.1719 25 15.625ZM30 5.625V24.375C30 25.9245 29.4499 27.2493 28.3496 28.3496C27.2493 29.4499 25.9245 30 24.375 30H5.625C4.07552 30 2.75065 29.4499 1.65039 28.3496C0.55013 27.2493 0 25.9245 0 24.375V5.625C0 4.07552 0.55013 2.75065 1.65039 1.65039C2.75065 0.55013 4.07552 0 5.625 0H24.375C25.9245 0 27.2493 0.55013 28.3496 1.65039C29.4499 2.75065 30 4.07552 30 5.625Z" fill="#1F1F1F"/>
</svg>
