<svg width="30" height="24" viewBox="0 0 30 24" fill="none" xmlns="http://www.w3.org/2000/svg">
<path d="M30 6.29684V19.5395C30 21.8289 28.1447 23.6842 25.8553 23.6842H4.14474C3.04548 23.6842 1.99125 23.2475 1.21397 22.4702C0.436676 21.693 0 20.6387 0 19.5395V6.29684L14.5247 14.2863C14.8208 14.4489 15.18 14.4489 15.4753 14.2863L30 6.29605V6.29684ZM25.8553 1.7825e-08C26.9372 0.000100544 27.9763 0.423279 28.7504 1.17914C29.5246 1.935 29.9725 2.96361 29.9984 4.04526L15 12.2953L0.00157883 4.04447L0.00315804 3.97342C0.0473706 2.90468 0.503058 1.89441 1.27493 1.15388C2.0468 0.413346 3.07508 -9.91207e-05 4.14474 1.7825e-08H25.8553Z" fill="#1F1F1F"/>
</svg>
