<svg width="30" height="30" viewBox="0 0 40 40" fill="none" xmlns="http://www.w3.org/2000/svg">
<path d="M32.5 0C34.566 0 36.3325 0.733507 37.7995 2.20052C39.2665 3.66753 40 5.43403 40 7.5V32.5C40 34.566 39.2665 36.3325 37.7995 37.7995C36.3325 39.2665 34.566 40 32.5 40H7.5C5.43403 40 3.66753 39.2665 2.20052 37.7995C0.733507 36.3325 0 34.566 0 32.5V7.5C0 5.43403 0.733507 3.66753 2.20052 2.20052C3.66753 0.733507 5.43403 0 7.5 0H32.5ZM33.3333 27.5V16.1458C32.7951 16.7535 32.2396 17.2309 31.6667 17.5781C31.0764 17.9601 29.9262 18.6979 28.2161 19.7917C26.5061 20.8854 25.191 21.7448 24.2708 22.3698C22.5694 23.5677 21.1458 24.1667 20 24.1667C18.8542 24.1667 17.4306 23.5677 15.7292 22.3698C14.9132 21.8142 13.6806 21.0113 12.0312 19.9609C10.3819 18.9106 9.14931 18.1076 8.33333 17.5521C8.125 17.4132 7.83854 17.1788 7.47396 16.849C7.10937 16.5191 6.84028 16.2847 6.66667 16.1458V27.5C6.66667 28.1944 6.90972 28.7847 7.39583 29.2708C7.88194 29.7569 8.47222 30 9.16667 30H30.8333C31.5278 30 32.1181 29.7569 32.6042 29.2708C33.0903 28.7847 33.3333 28.1944 33.3333 27.5ZM33.3333 12.5781C33.3333 11.8663 33.0946 11.2587 32.6172 10.7552C32.1398 10.2517 31.5451 10 30.8333 10H9.16667C8.47222 10 7.88194 10.2431 7.39583 10.7292C6.90972 11.2153 6.66667 11.8056 6.66667 12.5C6.66667 13.1424 6.93142 13.8064 7.46094 14.4922C7.99045 15.178 8.57639 15.7378 9.21875 16.1719C10.0347 16.7274 11.2283 17.5 12.7995 18.4896C14.3707 19.4792 15.4948 20.1997 16.1719 20.651C16.224 20.6858 16.3715 20.7856 16.6146 20.9505C16.8576 21.1155 17.0399 21.237 17.1615 21.3151C17.283 21.3932 17.4653 21.5061 17.7083 21.6536C17.9514 21.8012 18.1554 21.9141 18.3203 21.9922C18.4852 22.0703 18.6719 22.1528 18.8802 22.2396C19.0885 22.3264 19.2839 22.3915 19.4661 22.4349C19.6484 22.4783 19.8264 22.5 20 22.5C20.1736 22.5 20.3516 22.4783 20.5339 22.4349C20.7161 22.3915 20.9115 22.3264 21.1198 22.2396C21.3281 22.1528 21.5148 22.0703 21.6797 21.9922C21.8446 21.9141 22.0486 21.8012 22.2917 21.6536C22.5347 21.5061 22.717 21.3932 22.8385 21.3151C22.9601 21.237 23.1424 21.1155 23.3854 20.9505C23.6285 20.7856 23.776 20.6858 23.8281 20.651L30.7812 16.1198C31.3889 15.7205 31.9661 15.178 32.513 14.4922C33.0599 13.8064 33.3333 13.1684 33.3333 12.5781Z" fill="#F8F8F8"/>
</svg>
