<svg width="150" height="150" viewBox="0 0 150 150" fill="none" xmlns="http://www.w3.org/2000/svg">
<path fill-rule="evenodd" clip-rule="evenodd" d="M123.905 0H116.095L150 33.9055V26.0949L123.905 0ZM150 7.2388L142.761 0H150V7.2388ZM150 52.7613L97.238 0H89.428L150 60.572V52.7613ZM150 79.428L70.5713 0H62.7613L150 87.2387V79.428ZM150 106.095L43.9047 0H36.0944L150 113.905V106.095ZM150 132.761L17.2383 0H9.42773L150 140.572V132.761ZM140.571 150L0 9.4282V17.2388L132.761 150H140.571ZM113.905 150L0 36.0949V43.9053L106.095 150H113.905ZM87.238 150L0 62.7613V70.572L79.428 150H87.238ZM60.5713 150L0 89.428V97.2387L52.7613 150H60.5713ZM33.9049 150L0 116.095V123.905L26.0944 150H33.9049ZM7.23827 150L0 142.761V150H7.23827Z" fill="#1F1F1F"/>
</svg>
