<svg width="536" height="207" viewBox="0 0 536 207" fill="none" xmlns="http://www.w3.org/2000/svg">
<path d="M1 2L27.6772 31.449L54.3544 2L81.001 31.449L107.679 2L134.325 31.449L161.002 2L187.68 31.449L214.357 2L241.034 31.449L267.742 2" stroke="#BEBEBE" stroke-width="2" stroke-miterlimit="10" stroke-linecap="round"/>
<path d="M1 31L27.6772 60.449L54.3544 31L81.001 60.449L107.679 31L134.325 60.449L161.002 31L187.68 60.449L214.357 31L241.034 60.449L267.742 31" stroke="#BEBEBE" stroke-width="2" stroke-miterlimit="10" stroke-linecap="round"/>
<path d="M1 60L27.6772 89.449L54.3544 60L81.001 89.449L107.679 60L134.325 89.449L161.002 60L187.68 89.449L214.357 60L241.034 89.449L267.742 60" stroke="#BEBEBE" stroke-width="2" stroke-miterlimit="10" stroke-linecap="round"/>
<path d="M1 89L27.6772 118.449L54.3544 89L81.001 118.449L107.679 89L134.325 118.449L161.002 89L187.68 118.449L214.357 89L241.034 118.449L267.742 89" stroke="#BEBEBE" stroke-width="2" stroke-miterlimit="10" stroke-linecap="round"/>
<path d="M1 118L27.6772 147.449L54.3544 118L81.001 147.449L107.679 118L134.325 147.449L161.002 118L187.68 147.449L214.357 118L241.034 147.449L267.742 118" stroke="#BEBEBE" stroke-width="2" stroke-miterlimit="10" stroke-linecap="round"/>
<path d="M1 147L27.6772 176.449L54.3544 147L81.001 176.449L107.679 147L134.325 176.449L161.002 147L187.68 176.449L214.357 147L241.034 176.449L267.742 147" stroke="#BEBEBE" stroke-width="2" stroke-miterlimit="10" stroke-linecap="round"/>
<path d="M1 176L27.6772 205.449L54.3544 176L81.001 205.449L107.679 176L134.325 205.449L161.002 176L187.68 205.449L214.357 176L241.034 205.449L267.742 176" stroke="#BEBEBE" stroke-width="2" stroke-miterlimit="10" stroke-linecap="round"/>
<path d="M268 2L294.677 31.449L321.354 2L348.001 31.449L374.679 2L401.325 31.449L428.002 2L454.68 31.449L481.357 2L508.034 31.449L534.742 2" stroke="#BEBEBE" stroke-width="2" stroke-miterlimit="10" stroke-linecap="round"/>
<path d="M268 31L294.677 60.449L321.354 31L348.001 60.449L374.679 31L401.325 60.449L428.002 31L454.68 60.449L481.357 31L508.034 60.449L534.742 31" stroke="#BEBEBE" stroke-width="2" stroke-miterlimit="10" stroke-linecap="round"/>
<path d="M268 60L294.677 89.449L321.354 60L348.001 89.449L374.679 60L401.325 89.449L428.002 60L454.68 89.449L481.357 60L508.034 89.449L534.742 60" stroke="#BEBEBE" stroke-width="2" stroke-miterlimit="10" stroke-linecap="round"/>
<path d="M268 89L294.677 118.449L321.354 89L348.001 118.449L374.679 89L401.325 118.449L428.002 89L454.68 118.449L481.357 89L508.034 118.449L534.742 89" stroke="#BEBEBE" stroke-width="2" stroke-miterlimit="10" stroke-linecap="round"/>
<path d="M268 118L294.677 147.449L321.354 118L348.001 147.449L374.679 118L401.325 147.449L428.002 118L454.68 147.449L481.357 118L508.034 147.449L534.742 118" stroke="#BEBEBE" stroke-width="2" stroke-miterlimit="10" stroke-linecap="round"/>
<path d="M268 147L294.677 176.449L321.354 147L348.001 176.449L374.679 147L401.325 176.449L428.002 147L454.68 176.449L481.357 147L508.034 176.449L534.742 147" stroke="#BEBEBE" stroke-width="2" stroke-miterlimit="10" stroke-linecap="round"/>
<path d="M268 176L294.677 205.449L321.354 176L348.001 205.449L374.679 176L401.325 205.449L428.002 176L454.68 205.449L481.357 176L508.034 205.449L534.742 176" stroke="#BEBEBE" stroke-width="2" stroke-miterlimit="10" stroke-linecap="round"/>
</svg>
